<svg id="sw-js-blob-svg" viewBox="0 0 100 100" xmlns="http://www.w3.org/2000/svg">                    <defs>                         <linearGradient id="sw-gradient" x1="0" x2="1" y1="1" y2="0">                            <stop id="stop1" stop-color="rgba(55, 61.674, 248, 1)" offset="0%"></stop>                            <stop id="stop2" stop-color="rgba(255, 0, 95.558, 1)" offset="100%"></stop>                        </linearGradient>                    </defs>                <path fill="url(#sw-gradient)" d="M4.1,-10.1C5.6,-5.5,7.2,-4.7,13.3,-2.7C19.4,-0.7,30,2.6,29.9,4.5C29.9,6.4,19.3,6.9,14.3,12.2C9.4,17.4,10.2,27.3,7.1,31.5C4.1,35.6,-2.7,34.1,-6.5,29.5C-10.3,25,-11,17.6,-16.6,13.2C-22.1,8.8,-32.5,7.5,-35.4,3.6C-38.3,-0.4,-33.9,-6.9,-27.8,-9.6C-21.8,-12.4,-14.2,-11.3,-9.3,-14.3C-4.4,-17.3,-2.2,-24.4,-0.4,-23.7C1.3,-23.1,2.7,-14.6,4.1,-10.1Z" width="100%" height="100%" transform="translate(50 50)" stroke-width="0" style="transition: all 0.3s ease 0s;" stroke="url(#sw-gradient)"></path>              </svg>